<?xml version="1.0" encoding="UTF-8" standalone="no"?>
<!DOCTYPE svg PUBLIC "-//W3C//DTD SVG 20010904//EN"
              "http://www.w3.org/TR/2001/REC-SVG-20010904/DTD/svg10.dtd">

<svg xmlns="http://www.w3.org/2000/svg"
     width="0.753333in" height="0.856667in"
     viewBox="0 0 226 257">
  <path id="Selection #1"
        fill="#61dbfb" stroke="none" stroke-width="1"
        d="M 113.00,208.00
           C 115.81,213.94 120.13,216.81 125.00,221.00
             137.64,231.85 152.87,240.80 170.00,241.00
             201.08,241.36 222.58,222.37 224.82,191.00
             225.92,175.58 215.62,156.74 209.31,143.00
             209.31,143.00 176.25,74.00 176.25,74.00
             176.25,74.00 160.58,43.00 160.58,43.00
             151.30,26.55 145.21,7.46 125.00,1.44
             119.45,-0.21 115.67,-0.06 110.00,0.00
             86.91,0.28 78.91,15.56 69.00,33.00
             69.00,33.00 53.75,63.00 53.75,63.00
             53.75,63.00 19.74,133.00 19.74,133.00
             13.08,146.76 0.18,171.26 0.00,186.00
             -0.06,191.70 -0.31,196.42 1.16,202.00
             7.80,227.34 27.31,241.04 53.00,241.00
             78.40,240.96 96.10,224.90 113.00,208.00 Z
           M 123.00,197.00
           C 123.00,197.00 132.66,183.00 132.66,183.00
             143.20,167.52 152.82,150.14 153.91,131.00
             156.03,93.57 109.62,74.02 83.09,99.18
             72.66,109.07 70.84,119.39 71.00,133.00
             71.18,147.84 80.37,165.79 88.34,178.00
             88.34,178.00 97.40,191.00 97.40,191.00
             98.68,192.79 100.29,194.63 99.67,197.00
             99.02,199.46 93.03,205.02 91.00,206.96
             80.90,216.60 67.28,225.08 53.00,225.91
             29.23,227.29 11.84,204.60 16.67,182.00
             18.75,172.26 32.81,144.63 37.69,134.00
             37.69,134.00 63.75,80.00 63.75,80.00
             63.75,80.00 79.00,50.00 79.00,50.00
             87.07,35.79 94.22,13.33 115.00,16.30
             117.67,16.68 120.60,17.60 123.00,18.83
             135.64,25.30 143.62,47.62 150.31,60.00
             150.31,60.00 169.26,98.00 169.26,98.00
             169.26,98.00 191.86,145.00 191.86,145.00
             197.59,157.87 206.56,173.18 208.32,187.00
             209.09,190.66 208.70,192.43 208.32,196.00
             204.98,213.67 189.24,226.97 171.00,225.91
             151.71,224.79 135.87,209.87 123.00,197.00 Z
           M 20.00,122.00
           C 22.49,118.87 27.97,108.78 28.57,105.00
             29.13,101.45 27.35,98.16 26.00,95.00
             23.48,89.09 19.36,81.00 17.90,75.00
             13.74,57.88 23.29,41.40 39.00,34.31
             43.17,32.43 49.42,30.84 54.00,31.18
             54.00,31.18 65.00,33.00 65.00,33.00
             65.00,33.00 72.00,19.00 72.00,19.00
             44.59,10.09 15.68,20.21 4.45,48.00
             0.76,57.13 0.89,61.46 1.00,71.00
             1.16,84.08 13.40,110.35 20.00,122.00 Z
           M 153.00,19.00
           C 153.00,19.00 160.00,34.00 160.00,34.00
             163.68,32.81 168.14,31.48 172.00,31.18
             191.11,29.74 210.80,48.77 209.62,68.00
             208.81,81.32 197.89,97.53 196.73,104.00
             196.00,108.14 202.25,118.98 204.00,124.00
             204.00,124.00 206.00,124.00 206.00,124.00
             213.59,106.10 224.41,88.78 225.82,69.00
             226.03,65.97 225.42,62.98 225.00,60.00
             222.18,40.07 208.68,23.31 189.00,17.92
             174.85,14.04 166.65,16.26 153.00,19.00 Z
           M 94.00,31.00
           C 94.00,31.00 86.00,46.00 86.00,46.00
             89.14,48.24 99.83,57.36 99.99,61.00
             100.10,63.44 95.54,68.81 94.02,71.00
             89.46,77.60 83.19,86.34 81.00,94.00
             81.00,94.00 94.00,87.70 94.00,87.70
             94.00,87.70 105.82,83.44 105.82,83.44
             105.82,83.44 114.00,74.00 114.00,74.00
             119.76,87.53 124.30,84.18 135.00,89.78
             140.79,92.82 142.94,95.43 148.00,99.00
             145.32,89.59 131.20,67.45 124.00,61.00
             124.00,61.00 137.77,45.91 137.77,45.91
             137.77,45.91 132.00,33.00 132.00,33.00
             125.66,34.86 116.81,43.06 114.00,49.00
             114.00,49.00 94.00,31.00 94.00,31.00 Z
           M 113.00,183.00
           C 106.54,177.92 101.17,168.14 97.01,161.00
             91.92,152.26 86.63,138.21 87.04,128.00
             88.04,103.36 118.98,96.58 132.61,114.00
             141.05,124.79 136.11,142.88 130.74,154.00
             124.52,166.89 120.15,171.68 113.00,183.00 Z
           M 109.00,114.36
           C 90.75,120.38 95.21,143.22 111.00,144.80
             131.05,146.81 134.24,116.23 114.00,114.36
             111.97,113.99 110.95,114.23 109.00,114.36 Z
           M 42.00,133.00
           C 42.00,133.00 34.74,150.00 34.74,150.00
             33.87,154.63 40.50,165.50 42.75,170.00
             42.75,170.00 67.00,218.00 67.00,218.00
             70.54,216.88 79.35,212.78 80.13,208.83
             80.65,206.16 73.81,194.12 72.25,191.00
             72.25,191.00 52.86,152.00 52.86,152.00
             50.47,146.63 46.83,136.11 42.00,133.00 Z
           M 182.00,135.00
           C 182.00,135.00 155.22,189.00 155.22,189.00
             153.14,192.95 144.90,206.04 145.81,209.91
             146.77,214.01 155.38,217.44 159.00,219.00
             159.00,219.00 181.25,175.00 181.25,175.00
             183.38,170.74 190.21,158.04 190.41,154.00
             190.62,149.73 184.74,138.45 182.00,135.00 Z
           M 79.00,239.00
           C 94.09,262.76 133.59,263.98 147.00,239.00
             139.84,236.95 135.47,232.53 132.00,232.99
             129.69,233.29 127.03,235.78 125.00,237.04
             121.35,239.30 116.34,241.06 112.00,240.79
             107.64,240.51 103.55,238.67 100.00,236.22
             98.06,234.87 95.37,232.27 93.00,232.10
             90.66,231.94 81.56,237.54 79.00,239.00 Z" />
</svg>
